# xmcd
#
# Track frame offsets: 
#        150
#        18934
#        53159
#        67012
#        83635
#        99187
#        116409
#        131046
#        160136
#        182464
#        197787
#        211250
#        229853
#
# Disc length: 3402 seconds
#
# Revision: 5
# Processed by: cddbd v1.5.2PL0 Copyright (c) Steve Scherf et al.
# Submitted via: ExactAudioCopy v1.0b3
#
DISCID=a40d480d
DTITLE=Fleetwood Mac - Madison Blues [Disc 2]
DYEAR=2003
DGENRE=Blues
TTITLE0=Madison Blues
TTITLE1=Purple Dancer
TTITLE2=Open The Door
TTITLE3=Preaching Blues
TTITLE4=Dust My Broom
TTITLE5=Get Like You Used To Be
TTITLE6=Don't Go Please Stay
TTITLE7=Station Man
TTITLE8=I'm On My Way
TTITLE9=Jailhouse Rock
TTITLE10=The King Speaks (Narrative)
TTITLE11=Teenage Darlin'
TTITLE12=Honey Hush
EXTD=YEAR: 2003 ID3G: 0
EXTT0=
EXTT1=
EXTT2=
EXTT3=
EXTT4=
EXTT5=
EXTT6=
EXTT7=
EXTT8=
EXTT9=
EXTT10=
EXTT11=
EXTT12=
PLAYORDER=
